<svg width="162" height="164" viewBox="0 0 162 164" fill="none" xmlns="http://www.w3.org/2000/svg" xmlns:xlink="http://www.w3.org/1999/xlink">
<path d="M20.25,76.875C20.25,42.909 47.449,15.375 81,15.375C114.552,15.375 141.75,42.909 141.75,76.875C141.75,110.841 114.552,138.375 81,138.375C71.855,138.375 62.995,136.323 54.934,132.441L53.075,131.502L26.541,138.222C23.018,139.113 19.811,136.09 20.294,132.567L20.401,132.007L27.029,105.134C22.916,97.096 20.596,88.215 20.286,79.006L20.25,76.875ZM131.625,76.875C131.625,48.57 108.96,25.625 81,25.625C53.041,25.625 30.375,48.57 30.375,76.875C30.375,85.786 32.62,94.354 36.834,101.945C37.468,103.086 37.646,104.429 37.333,105.699L32.269,126.203L52.524,121.08C53.57,120.815 54.665,120.897 55.654,121.302L56.233,121.584C63.732,125.852 72.197,128.125 81,128.125C108.96,128.125 131.625,105.18 131.625,76.875Z" clip-rule="evenodd" fill-rule="evenodd" fill="#4302A5"/>
<path d="M55.688,92.25C52.892,92.25 50.625,89.955 50.625,87.125C50.625,84.497 52.579,82.331 55.097,82.034L55.688,82L86.063,82C88.858,82 91.125,84.295 91.125,87.125C91.125,89.753 89.171,91.919 86.653,92.216L86.063,92.25L55.688,92.25Z" fill="#4302A5"/>
<path d="M55.688,71.75C52.892,71.75 50.625,69.455 50.625,66.625C50.625,63.997 52.579,61.831 55.097,61.534L55.688,61.5L106.313,61.5C109.108,61.5 111.375,63.795 111.375,66.625C111.375,69.253 109.421,71.419 106.903,71.716L106.313,71.75L55.688,71.75Z" fill="#4302A5"/>
</svg>
