<svg width="70" height="68" viewBox="0 0 70 68" fill="none" xmlns="http://www.w3.org/2000/svg" xmlns:xlink="http://www.w3.org/1999/xlink">
<path d="M31,14C33.209,14 35,12.209 35,10C35,7.791 33.209,6 31,6L31,14ZM10,10L10,6L10,10ZM4,16L0,16L4,16ZM4,58L0,58L4,58ZM62,37C62,34.791 60.209,33 58,33C55.791,33 54,34.791 54,37L62,37ZM53.5,5.5L50.672,2.672L50.672,2.672L53.5,5.5ZM58,3.636L58,-0.364L58,3.636ZM62.5,14.5L59.672,11.672L59.672,11.672L62.5,14.5ZM34,43L34.97,46.881C35.673,46.705 36.316,46.341 36.828,45.828L34,43ZM22,46L18.119,45.03C17.779,46.393 18.178,47.835 19.172,48.828C20.165,49.822 21.607,50.221 22.97,49.881L22,46ZM25,34L22.172,31.172C21.659,31.684 21.295,32.326 21.119,33.03L25,34ZM31,6L10,6L10,14L31,14L31,6ZM10,6C7.348,6 4.804,7.054 2.929,8.929L8.586,14.586C8.961,14.211 9.47,14 10,14L10,6ZM2.929,8.929C1.054,10.804 0,13.348 0,16L8,16C8,15.47 8.211,14.961 8.586,14.586L2.929,8.929ZM0,16L0,58L8,58L8,16L0,16ZM0,58C0,60.652 1.054,63.196 2.929,65.071L8.586,59.414C8.211,59.039 8,58.53 8,58L0,58ZM2.929,65.071C4.804,66.946 7.348,68 10,68L10,60C9.47,60 8.961,59.789 8.586,59.414L2.929,65.071ZM10,68L52,68L52,60L10,60L10,68ZM52,68C54.652,68 57.196,66.946 59.071,65.071L53.414,59.414C53.039,59.789 52.53,60 52,60L52,68ZM59.071,65.071C60.946,63.196 62,60.652 62,58L54,58C54,58.53 53.789,59.039 53.414,59.414L59.071,65.071ZM62,58L62,37L54,37L54,58L62,58ZM56.328,8.328C56.772,7.885 57.373,7.636 58,7.636L58,-0.364C55.251,-0.364 52.615,0.728 50.672,2.672L56.328,8.328ZM58,7.636C58.627,7.636 59.228,7.885 59.672,8.328L65.328,2.672C63.385,0.728 60.749,-0.364 58,-0.364L58,7.636ZM59.672,8.328C60.115,8.772 60.364,9.373 60.364,10L68.364,10C68.364,7.251 67.272,4.615 65.328,2.672L59.672,8.328ZM60.364,10C60.364,10.627 60.115,11.228 59.672,11.672L65.328,17.328C67.272,15.385 68.364,12.749 68.364,10L60.364,10ZM59.672,11.672L31.172,40.172L36.828,45.828L65.328,17.328L59.672,11.672ZM33.03,39.119L21.03,42.119L22.97,49.881L34.97,46.881L33.03,39.119ZM25.881,46.97L28.881,34.97L21.119,33.03L18.119,45.03L25.881,46.97ZM27.828,36.828L56.328,8.328L50.672,2.672L22.172,31.172L27.828,36.828Z" fill="#1E1E1E"/>
</svg>
