<svg width="60" height="50" viewBox="0 0 60 50" fill="none" xmlns="http://www.w3.org/2000/svg" xmlns:xlink="http://www.w3.org/1999/xlink">
<path d="M57.5,1.5L59.443,1.973C59.64,1.163 59.315,0.316 58.625,-0.153C57.936,-0.622 57.028,-0.615 56.347,-0.134L57.5,1.5ZM49.65,5.325L48.141,6.637C48.657,7.231 49.473,7.467 50.227,7.24L49.65,5.325ZM30,12.825L32,12.825L32,12.798L30,12.825ZM30,15.325L30.052,17.324C31.136,17.296 32,16.409 32,15.325L30,15.325ZM7.5,4L9.137,2.851C8.723,2.261 8.023,1.94 7.306,2.009C6.589,2.079 5.965,2.529 5.672,3.188L7.5,4ZM20,36.5L21.123,38.155C21.724,37.747 22.057,37.045 21.992,36.322C21.927,35.599 21.476,34.967 20.812,34.672L20,36.5ZM2.5,41.5L2.579,39.502C1.654,39.465 0.824,40.068 0.574,40.96C0.324,41.852 0.719,42.798 1.529,43.248L2.5,41.5ZM52.5,12.75L54.5,12.75L54.5,12.743L52.5,12.75ZM52.3,10.675L50.896,9.251C50.42,9.72 50.21,10.395 50.336,11.05L52.3,10.675ZM56.347,-0.134C54.129,1.43 51.673,2.627 49.073,3.41L50.227,7.24C53.238,6.333 56.083,4.947 58.653,3.134L56.347,-0.134ZM51.159,4.013C49.385,1.972 47.026,0.526 44.403,-0.13L43.432,3.75C45.26,4.207 46.904,5.215 48.141,6.637L51.159,4.013ZM44.403,-0.13C41.78,-0.787 39.018,-0.622 36.492,0.343L37.918,4.08C39.679,3.408 41.604,3.293 43.432,3.75L44.403,-0.13ZM36.492,0.343C33.966,1.307 31.796,3.024 30.278,5.261L33.587,7.508C34.646,5.948 36.158,4.752 37.918,4.08L36.492,0.343ZM30.278,5.261C28.759,7.498 27.964,10.148 28,12.852L32,12.798C31.975,10.914 32.529,9.067 33.587,7.508L30.278,5.261ZM28,12.825L28,15.325L32,15.325L32,12.825L28,12.825ZM29.948,13.326C25.884,13.431 21.858,12.53 18.227,10.702L16.428,14.275C20.649,16.399 25.329,17.447 30.052,17.324L29.948,13.326ZM18.227,10.702C14.596,8.875 11.473,6.177 9.137,2.851L5.863,5.149C8.579,9.016 12.208,12.151 16.428,14.275L18.227,10.702ZM7.5,4C5.672,3.188 5.672,3.189 5.671,3.19C5.671,3.19 5.671,3.191 5.67,3.192C5.669,3.194 5.669,3.196 5.667,3.199C5.665,3.204 5.662,3.211 5.659,3.219C5.652,3.234 5.643,3.256 5.632,3.282C5.609,3.335 5.578,3.41 5.54,3.504C5.463,3.693 5.357,3.964 5.233,4.306C4.986,4.991 4.664,5.969 4.353,7.171C3.734,9.565 3.147,12.897 3.315,16.591C3.483,20.293 4.412,24.401 6.865,28.273C9.326,32.158 13.243,35.685 19.188,38.328L20.812,34.672C15.507,32.314 12.237,29.279 10.244,26.133C8.244,22.974 7.455,19.582 7.31,16.409C7.166,13.228 7.673,10.31 8.225,8.173C8.501,7.109 8.784,6.251 8.995,5.666C9.101,5.374 9.188,5.151 9.247,5.006C9.276,4.933 9.299,4.88 9.312,4.848C9.319,4.831 9.324,4.82 9.327,4.814C9.328,4.811 9.329,4.809 9.329,4.809C9.329,4.809 9.329,4.809 9.329,4.81C9.329,4.81 9.328,4.811 9.328,4.811C9.328,4.811 9.328,4.812 7.5,4ZM18.877,34.845C14.082,38.1 8.37,39.732 2.579,39.502L2.421,43.498C9.066,43.763 15.621,41.89 21.123,38.155L18.877,34.845ZM1.529,43.248C13.332,49.805 26.552,49.855 36.877,44.359C47.251,38.837 54.5,27.825 54.5,12.75L50.5,12.75C50.5,26.425 43.999,36.037 34.998,40.828C25.948,45.645 14.168,45.694 3.471,39.752L1.529,43.248ZM54.5,12.743C54.497,11.923 54.418,11.105 54.264,10.299L50.336,11.05C50.443,11.613 50.498,12.184 50.5,12.757L54.5,12.743ZM53.704,12.099C56.52,9.322 58.507,5.816 59.443,1.973L55.557,1.027C54.797,4.148 53.183,6.995 50.896,9.251L53.704,12.099Z" fill="#42069D"/>
</svg>
