<svg width="54" height="54" viewBox="0 0 54 54" fill="none" xmlns="http://www.w3.org/2000/svg" xmlns:xlink="http://www.w3.org/1999/xlink">
<path d="M51,50.5L51,52.5C52.105,52.5 53,51.605 53,50.5L51,50.5ZM41,50.5L39,50.5C39,51.605 39.895,52.5 41,52.5L41,50.5ZM31,50.5L31,52.5C32.105,52.5 33,51.605 33,50.5L31,50.5ZM21,50.5L19,50.5C19,51.605 19.895,52.5 21,52.5L21,50.5ZM1,20.5L1,18.5C-0.105,18.5 -1,19.395 -1,20.5L1,20.5ZM11,20.5L13,20.5C13,19.395 12.105,18.5 11,18.5L11,20.5ZM11,50.5L11,52.5C12.105,52.5 13,51.605 13,50.5L11,50.5ZM1,50.5L-1,50.5C-1,51.605 -0.105,52.5 1,52.5L1,50.5ZM36,20C39.448,20 42.754,21.37 45.192,23.808L48.021,20.979C44.833,17.791 40.509,16 36,16L36,20ZM45.192,23.808C47.63,26.246 49,29.552 49,33L53,33C53,28.491 51.209,24.167 48.021,20.979L45.192,23.808ZM49,33L49,50.5L53,50.5L53,33L49,33ZM51,48.5L41,48.5L41,52.5L51,52.5L51,48.5ZM43,50.5L43,33L39,33L39,50.5L43,50.5ZM43,33C43,31.143 42.263,29.363 40.95,28.05L38.121,30.879C38.684,31.441 39,32.204 39,33L43,33ZM40.95,28.05C39.637,26.737 37.857,26 36,26L36,30C36.796,30 37.559,30.316 38.121,30.879L40.95,28.05ZM36,26C34.143,26 32.363,26.737 31.05,28.05L33.879,30.879C34.441,30.316 35.204,30 36,30L36,26ZM31.05,28.05C29.737,29.363 29,31.143 29,33L33,33C33,32.204 33.316,31.441 33.879,30.879L31.05,28.05ZM29,33L29,50.5L33,50.5L33,33L29,33ZM31,48.5L21,48.5L21,52.5L31,52.5L31,48.5ZM23,50.5L23,33L19,33L19,50.5L23,50.5ZM23,33C23,29.552 24.37,26.246 26.808,23.808L23.979,20.979C20.791,24.167 19,28.491 19,33L23,33ZM26.808,23.808C29.246,21.37 32.552,20 36,20L36,16C31.491,16 27.167,17.791 23.979,20.979L26.808,23.808ZM1,22.5L11,22.5L11,18.5L1,18.5L1,22.5ZM9,20.5L9,50.5L13,50.5L13,20.5L9,20.5ZM11,48.5L1,48.5L1,52.5L11,52.5L11,48.5ZM3,50.5L3,20.5L-1,20.5L-1,50.5L3,50.5ZM9,8C9,9.657 7.657,11 6,11L6,15C9.866,15 13,11.866 13,8L9,8ZM6,11C4.343,11 3,9.657 3,8L-1,8C-1,11.866 2.134,15 6,15L6,11ZM3,8C3,6.343 4.343,5 6,5L6,1C2.134,1 -1,4.134 -1,8L3,8ZM6,5C7.657,5 9,6.343 9,8L13,8C13,4.134 9.866,1 6,1L6,5Z" fill="#42069D"/>
</svg>
