<svg width="54" height="58" viewBox="0 0 54 58" fill="none" xmlns="http://www.w3.org/2000/svg" xmlns:xlink="http://www.w3.org/1999/xlink">
<path d="M21.075,49.416C22.133,49.098 22.733,47.983 22.416,46.925C22.098,45.867 20.983,45.267 19.925,45.585L21.075,49.416ZM3.485,38.06C2.413,37.792 1.328,38.444 1.06,39.515C0.792,40.587 1.443,41.673 2.515,41.94L3.485,38.06ZM36,55C36,56.105 36.895,57 38,57C39.105,57 40,56.105 40,55L36,55ZM38,45.325L36.006,45.168C36.002,45.221 36,45.273 36,45.325L38,45.325ZM35.65,38.8L35.428,36.812C34.67,36.897 34.026,37.406 33.768,38.124C33.51,38.842 33.683,39.644 34.214,40.192L35.65,38.8ZM51.75,21.3L53.75,21.3L53.75,21.3L51.75,21.3ZM48,11.925L46.126,11.226C45.859,11.943 46.024,12.75 46.551,13.304L48,11.925ZM47.775,2.5L49.613,1.712C49.379,1.166 48.914,0.752 48.344,0.583L47.775,2.5ZM38,6.2L37.477,8.13C38.036,8.282 38.633,8.184 39.114,7.861L38,6.2ZM20.5,6.2L19.386,7.861C19.867,8.184 20.464,8.282 21.023,8.13L20.5,6.2ZM10.725,2.5L10.156,0.583C9.586,0.752 9.121,1.166 8.887,1.712L10.725,2.5ZM10.5,11.925L11.949,13.304C12.476,12.75 12.641,11.943 12.374,11.226L10.5,11.925ZM6.75,21.375L8.75,21.375L8.75,21.364L6.75,21.375ZM22.85,38.875L24.287,40.266C24.815,39.721 24.988,38.925 24.736,38.21C24.484,37.495 23.849,36.984 23.097,36.89L22.85,38.875ZM20.5,45.325L22.5,45.325C22.5,45.278 22.498,45.232 22.495,45.185L20.5,45.325ZM18.5,55C18.5,56.105 19.395,57 20.5,57C21.605,57 22.5,56.105 22.5,55L18.5,55ZM19.925,45.585C17.028,46.454 15.052,46.467 13.651,46.139C12.276,45.817 11.263,45.123 10.352,44.211C9.885,43.744 9.451,43.227 9.002,42.664C8.576,42.131 8.085,41.489 7.608,40.93C6.647,39.802 5.367,38.53 3.485,38.06L2.515,41.94C3.133,42.095 3.728,42.543 4.563,43.524C4.986,44.019 5.373,44.53 5.875,45.159C6.353,45.758 6.897,46.413 7.523,47.039C8.799,48.315 10.443,49.496 12.74,50.033C15.011,50.565 17.722,50.422 21.075,49.416L19.925,45.585ZM40,55L40,45.325L36,45.325L36,55L40,55ZM39.994,45.482C40.11,44.007 39.911,42.524 39.409,41.132L35.646,42.487C35.955,43.345 36.078,44.259 36.006,45.168L39.994,45.482ZM39.409,41.132C38.908,39.74 38.116,38.47 37.086,37.408L34.214,40.192C34.849,40.847 35.337,41.629 35.646,42.487L39.409,41.132ZM35.872,40.788C39.909,40.338 44.424,39.32 47.931,36.372C51.535,33.341 53.75,28.558 53.75,21.3L49.75,21.3C49.75,27.693 47.84,31.222 45.357,33.31C42.776,35.48 39.241,36.388 35.428,36.812L35.872,40.788ZM53.75,21.3C53.749,17.296 52.209,13.446 49.449,10.546L46.551,13.304C48.604,15.46 49.749,18.323 49.75,21.3L53.75,21.3ZM49.874,12.624C51.193,9.089 51.1,5.181 49.613,1.712L45.937,3.288C47.018,5.811 47.086,8.654 46.126,11.226L49.874,12.624ZM47.775,2.5C48.344,0.583 48.342,0.582 48.34,0.582C48.339,0.581 48.337,0.581 48.336,0.58C48.333,0.58 48.331,0.579 48.328,0.578C48.322,0.576 48.317,0.575 48.311,0.573C48.299,0.57 48.286,0.566 48.273,0.563C48.246,0.556 48.216,0.549 48.184,0.541C48.118,0.526 48.04,0.511 47.95,0.496C47.769,0.468 47.541,0.443 47.262,0.436C46.705,0.42 45.959,0.472 45.013,0.682C43.126,1.101 40.454,2.147 36.886,4.539L39.114,7.861C42.371,5.678 44.587,4.874 45.88,4.587C46.525,4.444 46.943,4.428 47.152,4.434C47.258,4.437 47.313,4.445 47.32,4.446C47.324,4.447 47.316,4.446 47.297,4.442C47.287,4.439 47.275,4.436 47.26,4.432C47.252,4.431 47.244,4.428 47.235,4.426C47.231,4.425 47.226,4.423 47.221,4.422C47.219,4.421 47.216,4.42 47.214,4.42C47.213,4.419 47.211,4.419 47.21,4.419C47.208,4.418 47.206,4.418 47.775,2.5ZM38.523,4.27C32.451,2.624 26.049,2.624 19.977,4.27L21.023,8.13C26.411,6.67 32.089,6.67 37.477,8.13L38.523,4.27ZM21.614,4.539C18.046,2.147 15.374,1.101 13.487,0.682C12.541,0.472 11.795,0.42 11.238,0.436C10.959,0.443 10.731,0.468 10.55,0.496C10.46,0.511 10.382,0.526 10.316,0.541C10.284,0.549 10.254,0.556 10.227,0.563C10.214,0.566 10.201,0.57 10.189,0.573C10.183,0.575 10.178,0.576 10.172,0.578C10.169,0.579 10.167,0.58 10.164,0.58C10.163,0.581 10.161,0.581 10.16,0.582C10.158,0.582 10.156,0.583 10.725,2.5C11.294,4.418 11.292,4.418 11.29,4.419C11.289,4.419 11.287,4.419 11.286,4.42C11.284,4.42 11.281,4.421 11.279,4.422C11.274,4.423 11.269,4.425 11.265,4.426C11.256,4.428 11.248,4.431 11.24,4.432C11.225,4.436 11.213,4.439 11.203,4.442C11.184,4.446 11.176,4.447 11.18,4.446C11.187,4.445 11.242,4.437 11.348,4.434C11.557,4.428 11.975,4.444 12.62,4.587C13.913,4.874 16.129,5.678 19.386,7.861L21.614,4.539ZM8.887,1.712C7.4,5.181 7.307,9.089 8.626,12.624L12.374,11.226C11.414,8.654 11.482,5.811 12.563,3.288L8.887,1.712ZM9.051,10.546C6.27,13.467 4.729,17.352 4.75,21.386L8.75,21.364C8.734,18.365 9.88,15.476 11.949,13.304L9.051,10.546ZM4.75,21.375C4.75,28.589 6.969,33.344 10.569,36.372C14.069,39.314 18.576,40.36 22.603,40.86L23.097,36.89C19.274,36.416 15.731,35.486 13.143,33.31C10.656,31.218 8.75,27.711 8.75,21.375L4.75,21.375ZM21.413,37.484C20.395,38.536 19.61,39.79 19.109,41.165L22.867,42.535C23.176,41.687 23.66,40.914 24.287,40.266L21.413,37.484ZM19.109,41.165C18.608,42.54 18.402,44.006 18.505,45.465L22.495,45.185C22.432,44.285 22.559,43.382 22.867,42.535L19.109,41.165ZM18.5,45.325L18.5,55L22.5,55L22.5,45.325L18.5,45.325Z" fill="#42069D"/>
</svg>
