<svg width="68" height="42" viewBox="0 0 68 42" fill="none" xmlns="http://www.w3.org/2000/svg" xmlns:xlink="http://www.w3.org/1999/xlink">
<path d="M19.333,-0.5C17.953,-0.5 16.833,0.619 16.833,2C16.833,3.381 17.953,4.5 19.333,4.5L19.333,-0.5ZM63.75,4.5C65.131,4.5 66.25,3.381 66.25,2C66.25,0.619 65.131,-0.5 63.75,-0.5L63.75,4.5ZM19.333,17.5C17.953,17.5 16.833,18.619 16.833,20C16.833,21.381 17.953,22.5 19.333,22.5L19.333,17.5ZM63.75,22.5C65.131,22.5 66.25,21.381 66.25,20C66.25,18.619 65.131,17.5 63.75,17.5L63.75,22.5ZM19.333,35.5C17.953,35.5 16.833,36.619 16.833,38C16.833,39.381 17.953,40.5 19.333,40.5L19.333,35.5ZM63.75,40.5C65.131,40.5 66.25,39.381 66.25,38C66.25,36.619 65.131,35.5 63.75,35.5L63.75,40.5ZM2.25,-0.5C0.869,-0.5 -0.25,0.619 -0.25,2C-0.25,3.381 0.869,4.5 2.25,4.5L2.25,-0.5ZM2.284,4.5C3.665,4.5 4.784,3.381 4.784,2C4.784,0.619 3.665,-0.5 2.284,-0.5L2.284,4.5ZM2.25,17.5C0.869,17.5 -0.25,18.619 -0.25,20C-0.25,21.381 0.869,22.5 2.25,22.5L2.25,17.5ZM2.284,22.5C3.665,22.5 4.784,21.381 4.784,20C4.784,18.619 3.665,17.5 2.284,17.5L2.284,22.5ZM2.25,35.5C0.869,35.5 -0.25,36.619 -0.25,38C-0.25,39.381 0.869,40.5 2.25,40.5L2.25,35.5ZM2.284,40.5C3.665,40.5 4.784,39.381 4.784,38C4.784,36.619 3.665,35.5 2.284,35.5L2.284,40.5ZM19.333,4.5L63.75,4.5L63.75,-0.5L19.333,-0.5L19.333,4.5ZM19.333,22.5L63.75,22.5L63.75,17.5L19.333,17.5L19.333,22.5ZM19.333,40.5L63.75,40.5L63.75,35.5L19.333,35.5L19.333,40.5ZM2.25,4.5L2.284,4.5L2.284,-0.5L2.25,-0.5L2.25,4.5ZM2.25,22.5L2.284,22.5L2.284,17.5L2.25,17.5L2.25,22.5ZM2.25,40.5L2.284,40.5L2.284,35.5L2.25,35.5L2.25,40.5Z" fill="#FFFFFF"/>
</svg>
