<svg width="76" height="52" viewBox="0 0 76 52" fill="none" xmlns="http://www.w3.org/2000/svg" xmlns:xlink="http://www.w3.org/1999/xlink">
<path d="M46.505,35.485C48.816,39.062 51.326,42.489 56.645,42.489C61.112,42.489 63.456,40.373 63.456,37.445C63.456,33.942 61.032,32.698 56.117,30.658L53.423,29.563C45.647,26.419 40.476,22.48 40.476,14.158C40.476,6.489 46.635,0.653 56.261,0.653C63.115,0.653 68.04,2.915 71.592,8.841L63.199,13.955C61.352,10.811 59.356,9.573 56.261,9.573C53.102,9.573 51.103,11.472 51.103,13.955C51.103,17.022 53.106,18.263 57.73,20.163L60.424,21.258C69.589,24.978 74.757,28.777 74.757,37.318C74.757,46.521 67.131,51.565 56.895,51.565C46.882,51.565 41.197,46.776 38.032,40.847L46.505,35.485ZM7.823,35.746C9.512,38.629 12.08,40.847 15.772,40.847C19.305,40.847 21.338,39.517 21.338,34.346L21.338,0.65L32.466,0.65L32.466,35.975C32.466,46.689 25.946,51.565 16.423,51.565C7.82,51.565 1.61,46.009 -0.921,40.847L7.823,35.746Z" fill="#000001"/>
</svg>
