<svg width="18" height="22" viewBox="0 0 18 22" fill="none" xmlns="http://www.w3.org/2000/svg" xmlns:xlink="http://www.w3.org/1999/xlink">
<path d="M15,20C15,20.552 15.448,21 16,21C16.552,21 17,20.552 17,20L15,20ZM12,14L12,13L12,14ZM4,14L4,13L4,14ZM0,18L-1,18L0,18ZM-1,20C-1,20.552 -0.552,21 0,21C0.552,21 1,20.552 1,20L-1,20ZM17,20L17,18L15,18L15,20L17,20ZM17,18C17,16.674 16.473,15.402 15.536,14.464L14.121,15.879C14.684,16.441 15,17.204 15,18L17,18ZM15.536,14.464C14.598,13.527 13.326,13 12,13L12,15C12.796,15 13.559,15.316 14.121,15.879L15.536,14.464ZM12,13L4,13L4,15L12,15L12,13ZM4,13C2.674,13 1.402,13.527 0.464,14.464L1.879,15.879C2.441,15.316 3.204,15 4,15L4,13ZM0.464,14.464C-0.473,15.402 -1,16.674 -1,18L1,18C1,17.204 1.316,16.441 1.879,15.879L0.464,14.464ZM-1,18L-1,20L1,20L1,18L-1,18ZM11,6C11,7.657 9.657,9 8,9L8,11C10.761,11 13,8.761 13,6L11,6ZM8,9C6.343,9 5,7.657 5,6L3,6C3,8.761 5.239,11 8,11L8,9ZM5,6C5,4.343 6.343,3 8,3L8,1C5.239,1 3,3.239 3,6L5,6ZM8,3C9.657,3 11,4.343 11,6L13,6C13,3.239 10.761,1 8,1L8,3Z" fill="#67717A"/>
</svg>
