<svg width="158" height="158" viewBox="0 0 158 158" fill="none" xmlns="http://www.w3.org/2000/svg" xmlns:xlink="http://www.w3.org/1999/xlink">
<path d="M147.964,155.036C149.917,156.988 153.083,156.988 155.036,155.036C156.988,153.083 156.988,149.917 155.036,147.964L147.964,155.036ZM119.511,112.439C117.558,110.487 114.392,110.487 112.439,112.439C110.487,114.392 110.487,117.558 112.439,119.511L119.511,112.439ZM130.167,69.833C130.167,103.155 103.155,130.167 69.833,130.167L69.833,140.167C108.677,140.167 140.167,108.677 140.167,69.833L130.167,69.833ZM69.833,130.167C36.512,130.167 9.5,103.155 9.5,69.833L-0.5,69.833C-0.5,108.677 30.989,140.167 69.833,140.167L69.833,130.167ZM9.5,69.833C9.5,36.512 36.512,9.5 69.833,9.5L69.833,-0.5C30.989,-0.5 -0.5,30.989 -0.5,69.833L9.5,69.833ZM69.833,9.5C103.155,9.5 130.167,36.512 130.167,69.833L140.167,69.833C140.167,30.989 108.677,-0.5 69.833,-0.5L69.833,9.5ZM155.036,147.964L119.511,112.439L112.439,119.511L147.964,155.036L155.036,147.964Z" fill="#42069D"/>
</svg>
