<svg width="48" height="48" viewBox="0 0 48 48" fill="none" xmlns="http://www.w3.org/2000/svg" xmlns:xlink="http://www.w3.org/1999/xlink">
<path d="M21.833,8.667C22.938,8.667 23.833,7.771 23.833,6.667C23.833,5.562 22.938,4.667 21.833,4.667L21.833,8.667ZM6.667,6.667L6.667,4.667L6.667,6.667ZM2.333,11L0.333,11L2.333,11ZM2.333,41.333L0.333,41.333L2.333,41.333ZM43.333,26.167C43.333,25.062 42.438,24.167 41.333,24.167C40.229,24.167 39.333,25.062 39.333,26.167L43.333,26.167ZM38.083,3.417L36.669,2.003L36.669,2.003L38.083,3.417ZM41.333,2.071L41.333,0.071L41.333,2.071ZM44.583,9.917L43.169,8.503L43.169,8.503L44.583,9.917ZM24,30.5L24.485,32.44C24.837,32.352 25.158,32.171 25.414,31.914L24,30.5ZM15.333,32.667L13.393,32.182C13.223,32.863 13.423,33.584 13.919,34.081C14.416,34.578 15.137,34.777 15.819,34.607L15.333,32.667ZM17.5,24L16.086,22.586C15.83,22.842 15.648,23.163 15.56,23.515L17.5,24ZM21.833,4.667L6.667,4.667L6.667,8.667L21.833,8.667L21.833,4.667ZM6.667,4.667C4.987,4.667 3.376,5.334 2.188,6.522L5.017,9.35C5.454,8.913 6.048,8.667 6.667,8.667L6.667,4.667ZM2.188,6.522C1.001,7.709 0.333,9.32 0.333,11L4.333,11C4.333,10.381 4.579,9.788 5.017,9.35L2.188,6.522ZM0.333,11L0.333,41.333L4.333,41.333L4.333,11L0.333,11ZM0.333,41.333C0.333,43.013 1.001,44.624 2.188,45.812L5.017,42.983C4.579,42.546 4.333,41.952 4.333,41.333L0.333,41.333ZM2.188,45.812C3.376,47 4.987,47.667 6.667,47.667L6.667,43.667C6.048,43.667 5.454,43.421 5.017,42.983L2.188,45.812ZM6.667,47.667L37,47.667L37,43.667L6.667,43.667L6.667,47.667ZM37,47.667C38.68,47.667 40.291,47 41.478,45.812L38.65,42.983C38.212,43.421 37.619,43.667 37,43.667L37,47.667ZM41.478,45.812C42.666,44.624 43.333,43.013 43.333,41.333L39.333,41.333C39.333,41.952 39.088,42.546 38.65,42.983L41.478,45.812ZM43.333,41.333L43.333,26.167L39.333,26.167L39.333,41.333L43.333,41.333ZM39.498,4.831C39.984,4.344 40.645,4.071 41.333,4.071L41.333,0.071C39.584,0.071 37.906,0.766 36.669,2.003L39.498,4.831ZM41.333,4.071C42.022,4.071 42.682,4.344 43.169,4.831L45.998,2.003C44.761,0.766 43.083,0.071 41.333,0.071L41.333,4.071ZM43.169,4.831C43.656,5.318 43.93,5.978 43.93,6.667L47.93,6.667C47.93,4.917 47.235,3.24 45.998,2.003L43.169,4.831ZM43.93,6.667C43.93,7.355 43.656,8.016 43.169,8.503L45.998,11.331C47.235,10.094 47.93,8.416 47.93,6.667L43.93,6.667ZM43.169,8.503L22.586,29.086L25.414,31.914L45.998,11.331L43.169,8.503ZM23.515,28.56L14.848,30.727L15.819,34.607L24.485,32.44L23.515,28.56ZM17.274,33.152L19.44,24.485L15.56,23.515L13.393,32.182L17.274,33.152ZM18.914,25.414L39.498,4.831L36.669,2.003L16.086,22.586L18.914,25.414Z" fill="#42069D"/>
</svg>
