<svg width="128" height="154" viewBox="0 0 128 154" fill="none" xmlns="http://www.w3.org/2000/svg" xmlns:xlink="http://www.w3.org/1999/xlink">
<path d="M64,15.4C47.019,15.4 33.252,29.19 33.252,46.2C33.252,63.21 47.019,77 64,77C80.981,77 94.748,63.21 94.748,46.2C94.748,29.19 80.981,15.4 64,15.4ZM91.988,82.924C103.011,74.482 110.121,61.173 110.121,46.2C110.121,20.684 89.472,0 64,0C38.528,0 17.879,20.684 17.879,46.2C17.879,61.173 24.989,74.482 36.012,82.924C28.283,86.349 21.172,91.196 15.081,97.298C10.377,102.009 6.42,107.33 3.287,113.075C-2.494,123.677 -0.137,134.486 6.374,142.13C12.642,149.488 22.683,154 33.252,154L94.748,154C105.317,154 115.358,149.488 121.626,142.13C128.137,134.486 130.494,123.677 124.713,113.075C121.58,107.33 117.623,102.009 112.919,97.298C106.828,91.196 99.717,86.349 91.988,82.924ZM64,92.4C49.729,92.4 36.043,98.079 25.952,108.187C22.293,111.852 19.216,115.99 16.779,120.458C14.419,124.785 15.181,128.742 18.069,132.133C21.201,135.81 26.84,138.6 33.252,138.6L94.748,138.6C101.16,138.6 106.799,135.81 109.931,132.133C112.819,128.742 113.581,124.785 111.221,120.458C108.784,115.99 105.707,111.852 102.048,108.187C91.957,98.079 78.271,92.4 64,92.4Z" clip-rule="evenodd" fill-rule="evenodd" fill="#42069D"/>
</svg>
