<svg width="18" height="20" viewBox="0 0 18 20" fill="none" xmlns="http://www.w3.org/2000/svg" xmlns:xlink="http://www.w3.org/1999/xlink">
<path d="M15,19C15,19.552 15.448,20 16,20C16.552,20 17,19.552 17,19L15,19ZM12,13L12,12L12,13ZM4,13L4,12L4,13ZM0,17L-1,17L0,17ZM-1,19C-1,19.552 -0.552,20 0,20C0.552,20 1,19.552 1,19L-1,19ZM17,19L17,17L15,17L15,19L17,19ZM17,17C17,15.674 16.473,14.402 15.536,13.464L14.121,14.879C14.684,15.441 15,16.204 15,17L17,17ZM15.536,13.464C14.598,12.527 13.326,12 12,12L12,14C12.796,14 13.559,14.316 14.121,14.879L15.536,13.464ZM12,12L4,12L4,14L12,14L12,12ZM4,12C2.674,12 1.402,12.527 0.464,13.464L1.879,14.879C2.441,14.316 3.204,14 4,14L4,12ZM0.464,13.464C-0.473,14.402 -1,15.674 -1,17L1,17C1,16.204 1.316,15.441 1.879,14.879L0.464,13.464ZM-1,17L-1,19L1,19L1,17L-1,17ZM11,5C11,6.657 9.657,8 8,8L8,10C10.761,10 13,7.761 13,5L11,5ZM8,8C6.343,8 5,6.657 5,5L3,5C3,7.761 5.239,10 8,10L8,8ZM5,5C5,3.343 6.343,2 8,2L8,0C5.239,0 3,2.239 3,5L5,5ZM8,2C9.657,2 11,3.343 11,5L13,5C13,2.239 10.761,0 8,0L8,2Z" fill="#67717A"/>
</svg>
