<svg width="34" height="36" viewBox="0 0 34 36" fill="none" xmlns="http://www.w3.org/2000/svg" xmlns:xlink="http://www.w3.org/1999/xlink">
<path d="M29.586,34.414C30.367,35.195 31.633,35.195 32.414,34.414C33.195,33.633 33.195,32.367 32.414,31.586L29.586,34.414ZM25.164,24.336C24.383,23.555 23.117,23.555 22.336,24.336C21.555,25.117 21.555,26.383 22.336,27.164L25.164,24.336ZM25.667,16.333C25.667,22.593 20.593,27.667 14.333,27.667L14.333,31.667C22.802,31.667 29.667,24.802 29.667,16.333L25.667,16.333ZM14.333,27.667C8.074,27.667 3,22.593 3,16.333L-1,16.333C-1,24.802 5.865,31.667 14.333,31.667L14.333,27.667ZM3,16.333C3,10.074 8.074,5 14.333,5L14.333,1C5.865,1 -1,7.865 -1,16.333L3,16.333ZM14.333,5C20.593,5 25.667,10.074 25.667,16.333L29.667,16.333C29.667,7.865 22.802,1 14.333,1L14.333,5ZM32.414,31.586L25.164,24.336L22.336,27.164L29.586,34.414L32.414,31.586Z" fill="#67717A"/>
</svg>
